<svg width="31" height="25" viewBox="0 0 31 25" fill="none" xmlns="http://www.w3.org/2000/svg">
<path fill-rule="evenodd" clip-rule="evenodd" d="M22.4074 7.3611C22.4074 11.2963 19.2129 14.4907 15.2778 14.4907C11.3426 14.4907 8.14813 11.3426 8.14813 7.4074C8.14813 3.47222 11.3426 0.277771 15.2778 0.277771C19.2129 0.277771 22.4074 3.42592 22.4074 7.3611ZM21.0185 7.4074C21.0185 4.21296 18.4259 1.66666 15.2778 1.66666C12.1296 1.66666 9.53702 4.16666 9.53702 7.3611C9.53702 10.5555 12.1296 13.1018 15.2778 13.1018C18.4259 13.1018 21.0185 10.6018 21.0185 7.4074Z" fill="#979797"/>
<path d="M29.8611 23.5185C25.8333 20.0926 20.6481 18.2407 15.2778 18.2407C9.90738 18.2407 4.7222 20.0926 0.694418 23.5185C0.416641 23.75 0.370344 24.213 0.601826 24.4907C0.833307 24.7685 1.29627 24.8148 1.57405 24.5833C5.37034 21.3889 10.1852 19.6296 15.2315 19.6296C20.2778 19.6296 25.1389 21.3889 28.8889 24.5833C29.0278 24.6759 29.1666 24.7685 29.3518 24.7685C29.537 24.7685 29.7222 24.6759 29.8611 24.537C30.1852 24.213 30.1389 23.75 29.8611 23.5185Z" fill="#979797"/>
</svg>
